<svg width="160" height="51" viewBox="0 0 160 51" fill="none" xmlns="http://www.w3.org/2000/svg">
<path d="M79.1113 7.57005V21H76.9084V11.8019L72.8117 21H71.2852L67.1692 11.8019V21H64.9663V7.57005H67.3431L72.0581 18.1014L76.7538 7.57005H79.1113ZM81.2723 15.628C81.2723 14.5588 81.4913 13.6119 81.9294 12.7874C82.3802 11.963 82.9857 11.3253 83.7458 10.8744C84.5187 10.4106 85.369 10.1787 86.2965 10.1787C87.1339 10.1787 87.8617 10.3462 88.4801 10.6812C89.1113 11.0032 89.6137 11.409 89.9873 11.8985V10.3527H92.2095V21H89.9873V19.4155C89.6137 19.9179 89.1049 20.3366 88.4608 20.6715C87.8166 21.0064 87.0823 21.1739 86.2579 21.1739C85.3432 21.1739 84.5058 20.942 83.7458 20.4783C82.9857 20.0016 82.3802 19.3446 81.9294 18.5072C81.4913 17.657 81.2723 16.6973 81.2723 15.628ZM89.9873 15.6667C89.9873 14.9324 89.8327 14.2947 89.5236 13.7536C89.2273 13.2126 88.8343 12.8003 88.3448 12.5169C87.8553 12.2335 87.3271 12.0918 86.7603 12.0918C86.1934 12.0918 85.6653 12.2335 85.1757 12.5169C84.6862 12.7874 84.2868 13.1932 83.9777 13.7343C83.6814 14.2625 83.5332 14.8937 83.5332 15.628C83.5332 16.3623 83.6814 17.0064 83.9777 17.5604C84.2868 18.1143 84.6862 18.5395 85.1757 18.8357C85.6781 19.1192 86.2063 19.2609 86.7603 19.2609C87.3271 19.2609 87.8553 19.1192 88.3448 18.8357C88.8343 18.5523 89.2273 18.1401 89.5236 17.599C89.8327 17.0451 89.9873 16.401 89.9873 15.6667ZM97.3059 11.8985C97.6279 11.3575 98.053 10.9388 98.5812 10.6425C99.1223 10.3333 99.76 10.1787 100.494 10.1787V12.4589H99.9339C99.0708 12.4589 98.4138 12.6779 97.9629 13.1159C97.5249 13.5539 97.3059 14.314 97.3059 15.3961V21H95.103V10.3527H97.3059V11.8985ZM108.026 10.1787C108.838 10.1787 109.559 10.3527 110.191 10.7005C110.835 11.0483 111.337 11.5636 111.698 12.2464C112.072 12.9291 112.258 13.7536 112.258 14.7198V21H110.075V15.0483C110.075 14.095 109.836 13.3671 109.36 12.8647C108.883 12.3494 108.233 12.0918 107.408 12.0918C106.584 12.0918 105.927 12.3494 105.437 12.8647C104.96 13.3671 104.722 14.095 104.722 15.0483V21H102.519V6.70048H104.722V11.5894C105.096 11.1385 105.566 10.7907 106.133 10.5459C106.712 10.3011 107.344 10.1787 108.026 10.1787ZM114.334 15.628C114.334 14.5588 114.553 13.6119 114.991 12.7874C115.442 11.963 116.047 11.3253 116.807 10.8744C117.58 10.4106 118.431 10.1787 119.358 10.1787C120.195 10.1787 120.923 10.3462 121.542 10.6812C122.173 11.0032 122.675 11.409 123.049 11.8985V10.3527H125.271V21H123.049V19.4155C122.675 19.9179 122.166 20.3366 121.522 20.6715C120.878 21.0064 120.144 21.1739 119.319 21.1739C118.405 21.1739 117.567 20.942 116.807 20.4783C116.047 20.0016 115.442 19.3446 114.991 18.5072C114.553 17.657 114.334 16.6973 114.334 15.628ZM123.049 15.6667C123.049 14.9324 122.894 14.2947 122.585 13.7536C122.289 13.2126 121.896 12.8003 121.406 12.5169C120.917 12.2335 120.389 12.0918 119.822 12.0918C119.255 12.0918 118.727 12.2335 118.237 12.5169C117.748 12.7874 117.348 13.1932 117.039 13.7343C116.743 14.2625 116.595 14.8937 116.595 15.628C116.595 16.3623 116.743 17.0064 117.039 17.5604C117.348 18.1143 117.748 18.5395 118.237 18.8357C118.74 19.1192 119.268 19.2609 119.822 19.2609C120.389 19.2609 120.917 19.1192 121.406 18.8357C121.896 18.5523 122.289 18.1401 122.585 17.599C122.894 17.0451 123.049 16.401 123.049 15.6667ZM130.367 11.9372C130.741 11.4219 131.25 11.0032 131.894 10.6812C132.551 10.3462 133.279 10.1787 134.078 10.1787C135.018 10.1787 135.868 10.4042 136.628 10.8551C137.388 11.306 137.987 11.9501 138.425 12.7874C138.863 13.6119 139.082 14.5588 139.082 15.628C139.082 16.6973 138.863 17.657 138.425 18.5072C137.987 19.3446 137.382 20.0016 136.609 20.4783C135.849 20.942 135.005 21.1739 134.078 21.1739C133.253 21.1739 132.519 21.0129 131.875 20.6908C131.243 20.3688 130.741 19.9565 130.367 19.4541V21H128.165V6.70048H130.367V11.9372ZM136.841 15.628C136.841 14.8937 136.686 14.2625 136.377 13.7343C136.081 13.1932 135.681 12.7874 135.179 12.5169C134.69 12.2335 134.161 12.0918 133.595 12.0918C133.041 12.0918 132.512 12.2335 132.01 12.5169C131.52 12.8003 131.121 13.2126 130.812 13.7536C130.516 14.2947 130.367 14.9324 130.367 15.6667C130.367 16.401 130.516 17.0451 130.812 17.599C131.121 18.1401 131.52 18.5523 132.01 18.8357C132.512 19.1192 133.041 19.2609 133.595 19.2609C134.161 19.2609 134.69 19.1192 135.179 18.8357C135.681 18.5395 136.081 18.1143 136.377 17.5604C136.686 17.0064 136.841 16.3623 136.841 15.628ZM140.527 15.628C140.527 14.5588 140.746 13.6119 141.184 12.7874C141.634 11.963 142.24 11.3253 143 10.8744C143.773 10.4106 144.623 10.1787 145.551 10.1787C146.388 10.1787 147.116 10.3462 147.734 10.6812C148.366 11.0032 148.868 11.409 149.242 11.8985V10.3527H151.464V21H149.242V19.4155C148.868 19.9179 148.359 20.3366 147.715 20.6715C147.071 21.0064 146.337 21.1739 145.512 21.1739C144.597 21.1739 143.76 20.942 143 20.4783C142.24 20.0016 141.634 19.3446 141.184 18.5072C140.746 17.657 140.527 16.6973 140.527 15.628ZM149.242 15.6667C149.242 14.9324 149.087 14.2947 148.778 13.7536C148.481 13.2126 148.089 12.8003 147.599 12.5169C147.11 12.2335 146.581 12.0918 146.014 12.0918C145.448 12.0918 144.919 12.2335 144.43 12.5169C143.94 12.7874 143.541 13.1932 143.232 13.7343C142.936 14.2625 142.787 14.8937 142.787 15.628C142.787 16.3623 142.936 17.0064 143.232 17.5604C143.541 18.1143 143.94 18.5395 144.43 18.8357C144.932 19.1192 145.461 19.2609 146.014 19.2609C146.581 19.2609 147.11 19.1192 147.599 18.8357C148.089 18.5523 148.481 18.1401 148.778 17.599C149.087 17.0451 149.242 16.401 149.242 15.6667Z" fill="white"/>
<path d="M72.0706 44L69.5972 39.7024H68.2523V44H66.49V33.256H70.2001C71.0246 33.256 71.7202 33.4003 72.2871 33.6889C72.8642 33.9775 73.2919 34.3639 73.5702 34.8483C73.8587 35.3327 74.003 35.8738 74.003 36.4715C74.003 37.1723 73.7969 37.8113 73.3847 38.3884C72.9827 38.9552 72.3592 39.3417 71.5141 39.5478L74.1731 44H72.0706ZM68.2523 38.2957H70.2001C70.8597 38.2957 71.3544 38.1308 71.6842 37.801C72.0243 37.4712 72.1943 37.028 72.1943 36.4715C72.1943 35.915 72.0294 35.4821 71.6996 35.1729C71.3698 34.8535 70.87 34.6937 70.2001 34.6937H68.2523V38.2957ZM84.0642 39.5324C84.0642 39.8519 84.0436 40.1404 84.0024 40.3981H77.4942C77.5457 41.0783 77.7982 41.6245 78.2517 42.0367C78.7051 42.449 79.2617 42.6551 79.9212 42.6551C80.8694 42.6551 81.5393 42.2583 81.9309 41.4647H83.8324C83.5747 42.248 83.1058 42.8921 82.4256 43.3971C81.7557 43.8918 80.9209 44.1391 79.9212 44.1391C79.1071 44.1391 78.3754 43.9588 77.7261 43.5981C77.0871 43.2271 76.5821 42.7118 76.2111 42.0522C75.8504 41.3823 75.67 40.6093 75.67 39.7333C75.67 38.8573 75.8452 38.0895 76.1956 37.43C76.5563 36.7601 77.0562 36.2448 77.6952 35.8841C78.3444 35.5233 79.0865 35.343 79.9212 35.343C80.7251 35.343 81.4414 35.5182 82.07 35.8686C82.6987 36.219 83.1882 36.7137 83.5386 37.3527C83.889 37.9813 84.0642 38.7079 84.0642 39.5324ZM82.2246 38.9758C82.2143 38.3266 81.9824 37.8061 81.529 37.4145C81.0755 37.0229 80.5138 36.8271 79.844 36.8271C79.2359 36.8271 78.7154 37.0229 78.2826 37.4145C77.8497 37.7958 77.5921 38.3163 77.5097 38.9758H82.2246ZM85.2111 39.7024C85.2111 38.847 85.3863 38.0895 85.7367 37.43C86.0974 36.7704 86.5818 36.2602 87.1898 35.8995C87.8082 35.5285 88.4884 35.343 89.2304 35.343C89.9003 35.343 90.4826 35.477 90.9773 35.7449C91.4823 36.0026 91.8842 36.3272 92.1831 36.7188V35.4821H93.9609V44H92.1831V42.7324C91.8842 43.1343 91.4771 43.4692 90.9618 43.7372C90.4465 44.0052 89.8591 44.1391 89.1995 44.1391C88.4678 44.1391 87.7979 43.9536 87.1898 43.5826C86.5818 43.2013 86.0974 42.6757 85.7367 42.0058C85.3863 41.3256 85.2111 40.5578 85.2111 39.7024ZM92.1831 39.7333C92.1831 39.1459 92.0594 38.6357 91.8121 38.2029C91.575 37.77 91.2607 37.4403 90.8691 37.2135C90.4774 36.9868 90.0549 36.8734 89.6014 36.8734C89.148 36.8734 88.7254 36.9868 88.3338 37.2135C87.9422 37.43 87.6227 37.7546 87.3754 38.1874C87.1383 38.61 87.0198 39.115 87.0198 39.7024C87.0198 40.2899 87.1383 40.8052 87.3754 41.2483C87.6227 41.6915 87.9422 42.0316 88.3338 42.2686C88.7357 42.4953 89.1583 42.6087 89.6014 42.6087C90.0549 42.6087 90.4774 42.4953 90.8691 42.2686C91.2607 42.0419 91.575 41.7121 91.8121 41.2792C92.0594 40.8361 92.1831 40.3208 92.1831 39.7333ZM98.0379 32.5604V44H96.2756V32.5604H98.0379ZM106.13 34.6783V37.8319H109.84V39.2696H106.13V42.5623H110.304V44H104.367V33.2406H110.304V34.6783H106.13ZM115.566 44.1391C114.896 44.1391 114.293 44.0206 113.757 43.7836C113.232 43.5362 112.814 43.2064 112.505 42.7942C112.196 42.3717 112.031 41.9027 112.01 41.3874H113.835C113.866 41.7481 114.036 42.0522 114.345 42.2995C114.664 42.5366 115.061 42.6551 115.535 42.6551C116.03 42.6551 116.411 42.5623 116.679 42.3768C116.957 42.181 117.096 41.9337 117.096 41.6348C117.096 41.3153 116.942 41.0783 116.633 40.9237C116.334 40.7691 115.855 40.599 115.195 40.4135C114.556 40.2383 114.036 40.0683 113.634 39.9034C113.232 39.7385 112.881 39.486 112.582 39.1459C112.294 38.8058 112.15 38.3575 112.15 37.801C112.15 37.3475 112.284 36.9353 112.552 36.5643C112.82 36.1829 113.201 35.8841 113.696 35.6676C114.201 35.4512 114.778 35.343 115.427 35.343C116.396 35.343 117.174 35.5903 117.761 36.085C118.359 36.5694 118.678 37.2341 118.72 38.0792H116.957C116.926 37.6979 116.772 37.3939 116.494 37.1671C116.215 36.9404 115.839 36.8271 115.365 36.8271C114.901 36.8271 114.546 36.9147 114.298 37.0899C114.051 37.2651 113.927 37.4969 113.927 37.7855C113.927 38.0122 114.01 38.2029 114.175 38.3575C114.34 38.5121 114.541 38.6357 114.778 38.7285C115.015 38.8109 115.365 38.9192 115.829 39.0531C116.447 39.218 116.952 39.3881 117.344 39.5633C117.746 39.7282 118.091 39.9755 118.38 40.3053C118.668 40.6351 118.818 41.0731 118.828 41.6193C118.828 42.1037 118.694 42.5366 118.426 42.9179C118.158 43.2992 117.777 43.5981 117.282 43.8145C116.798 44.0309 116.226 44.1391 115.566 44.1391ZM122.788 36.9198V41.6348C122.788 41.9543 122.86 42.1862 123.005 42.3304C123.159 42.4644 123.417 42.5314 123.778 42.5314H124.86V44H123.468C122.675 44 122.067 43.8145 121.644 43.4435C121.222 43.0725 121.01 42.4696 121.01 41.6348V36.9198H120.006V35.4821H121.01V33.3643H122.788V35.4821H124.86V36.9198H122.788ZM125.896 39.7024C125.896 38.847 126.072 38.0895 126.422 37.43C126.783 36.7704 127.267 36.2602 127.875 35.8995C128.494 35.5285 129.174 35.343 129.916 35.343C130.586 35.343 131.168 35.477 131.663 35.7449C132.168 36.0026 132.57 36.3272 132.868 36.7188V35.4821H134.646V44H132.868V42.7324C132.57 43.1343 132.163 43.4692 131.647 43.7372C131.132 44.0052 130.544 44.1391 129.885 44.1391C129.153 44.1391 128.483 43.9536 127.875 43.5826C127.267 43.2013 126.783 42.6757 126.422 42.0058C126.072 41.3256 125.896 40.5578 125.896 39.7024ZM132.868 39.7333C132.868 39.1459 132.745 38.6357 132.497 38.2029C132.26 37.77 131.946 37.4403 131.554 37.2135C131.163 36.9868 130.74 36.8734 130.287 36.8734C129.833 36.8734 129.411 36.9868 129.019 37.2135C128.628 37.43 128.308 37.7546 128.061 38.1874C127.824 38.61 127.705 39.115 127.705 39.7024C127.705 40.2899 127.824 40.8052 128.061 41.2483C128.308 41.6915 128.628 42.0316 129.019 42.2686C129.421 42.4953 129.844 42.6087 130.287 42.6087C130.74 42.6087 131.163 42.4953 131.554 42.2686C131.946 42.0419 132.26 41.7121 132.497 41.2792C132.745 40.8361 132.868 40.3208 132.868 39.7333ZM139.017 36.9198V41.6348C139.017 41.9543 139.089 42.1862 139.233 42.3304C139.388 42.4644 139.646 42.5314 140.006 42.5314H141.089V44H139.697C138.904 44 138.296 43.8145 137.873 43.4435C137.451 43.0725 137.239 42.4696 137.239 41.6348V36.9198H136.234V35.4821H137.239V33.3643H139.017V35.4821H141.089V36.9198H139.017ZM150.52 39.5324C150.52 39.8519 150.499 40.1404 150.458 40.3981H143.95C144.001 41.0783 144.254 41.6245 144.707 42.0367C145.16 42.449 145.717 42.6551 146.377 42.6551C147.325 42.6551 147.995 42.2583 148.386 41.4647H150.288C150.03 42.248 149.561 42.8921 148.881 43.3971C148.211 43.8918 147.376 44.1391 146.377 44.1391C145.562 44.1391 144.831 43.9588 144.181 43.5981C143.542 43.2271 143.037 42.7118 142.666 42.0522C142.306 41.3823 142.125 40.6093 142.125 39.7333C142.125 38.8573 142.301 38.0895 142.651 37.43C143.012 36.7601 143.512 36.2448 144.15 35.8841C144.8 35.5233 145.542 35.343 146.377 35.343C147.18 35.343 147.897 35.5182 148.525 35.8686C149.154 36.219 149.644 36.7137 149.994 37.3527C150.344 37.9813 150.52 38.7079 150.52 39.5324ZM148.68 38.9758C148.67 38.3266 148.438 37.8061 147.984 37.4145C147.531 37.0229 146.969 36.8271 146.299 36.8271C145.691 36.8271 145.171 37.0229 144.738 37.4145C144.305 37.7958 144.047 38.3163 143.965 38.9758H148.68Z" fill="#5935E9"/>
<path d="M16.113 9.27539H31.2786L53.0789 31.0759V41.7392H42.1788V35.3575L16.113 9.27539Z" fill="#BEB0F7"/>
<path d="M0.000126717 9.27539H10.3461L31.7529 31.0759V41.7392H21.0896V35.3412L10.6633 24.9149V41.7392H0L0.000126717 9.27539Z" fill="#5935E9"/>
</svg>
