<svg width="295" height="44" viewBox="0 0 295 44" fill="none" xmlns="http://www.w3.org/2000/svg">
<path d="M90.21 12.15V33H86.79V18.72L80.43 33H78.06L71.67 18.72V33H68.25V12.15H71.94L79.26 28.5L86.55 12.15H90.21ZM93.5651 24.66C93.5651 23 93.9051 21.53 94.5851 20.25C95.2851 18.97 96.2251 17.98 97.4051 17.28C98.6051 16.56 99.9251 16.2 101.365 16.2C102.665 16.2 103.795 16.46 104.755 16.98C105.735 17.48 106.515 18.11 107.095 18.87V16.47H110.545V33H107.095V30.54C106.515 31.32 105.725 31.97 104.725 32.49C103.725 33.01 102.585 33.27 101.305 33.27C99.8851 33.27 98.5851 32.91 97.4051 32.19C96.2251 31.45 95.2851 30.43 94.5851 29.13C93.9051 27.81 93.5651 26.32 93.5651 24.66ZM107.095 24.72C107.095 23.58 106.855 22.59 106.375 21.75C105.915 20.91 105.305 20.27 104.545 19.83C103.785 19.39 102.965 19.17 102.085 19.17C101.205 19.17 100.385 19.39 99.6251 19.83C98.8651 20.25 98.2451 20.88 97.7651 21.72C97.3051 22.54 97.0751 23.52 97.0751 24.66C97.0751 25.8 97.3051 26.8 97.7651 27.66C98.2451 28.52 98.8651 29.18 99.6251 29.64C100.405 30.08 101.225 30.3 102.085 30.3C102.965 30.3 103.785 30.08 104.545 29.64C105.305 29.2 105.915 28.56 106.375 27.72C106.855 26.86 107.095 25.86 107.095 24.72ZM118.457 18.87C118.957 18.03 119.617 17.38 120.437 16.92C121.277 16.44 122.267 16.2 123.407 16.2V19.74H122.537C121.197 19.74 120.177 20.08 119.477 20.76C118.797 21.44 118.457 22.62 118.457 24.3V33H115.037V16.47H118.457V18.87ZM135.101 16.2C136.361 16.2 137.481 16.47 138.461 17.01C139.461 17.55 140.241 18.35 140.801 19.41C141.381 20.47 141.671 21.75 141.671 23.25V33H138.281V23.76C138.281 22.28 137.911 21.15 137.171 20.37C136.431 19.57 135.421 19.17 134.141 19.17C132.861 19.17 131.841 19.57 131.081 20.37C130.341 21.15 129.971 22.28 129.971 23.76V33H126.551V10.8H129.971V18.39C130.551 17.69 131.281 17.15 132.161 16.77C133.061 16.39 134.041 16.2 135.101 16.2ZM144.893 24.66C144.893 23 145.233 21.53 145.913 20.25C146.613 18.97 147.553 17.98 148.733 17.28C149.933 16.56 151.253 16.2 152.693 16.2C153.993 16.2 155.123 16.46 156.083 16.98C157.063 17.48 157.843 18.11 158.423 18.87V16.47H161.873V33H158.423V30.54C157.843 31.32 157.053 31.97 156.053 32.49C155.053 33.01 153.913 33.27 152.633 33.27C151.213 33.27 149.913 32.91 148.733 32.19C147.553 31.45 146.613 30.43 145.913 29.13C145.233 27.81 144.893 26.32 144.893 24.66ZM158.423 24.72C158.423 23.58 158.183 22.59 157.703 21.75C157.243 20.91 156.633 20.27 155.873 19.83C155.113 19.39 154.293 19.17 153.413 19.17C152.533 19.17 151.713 19.39 150.953 19.83C150.193 20.25 149.573 20.88 149.093 21.72C148.633 22.54 148.403 23.52 148.403 24.66C148.403 25.8 148.633 26.8 149.093 27.66C149.573 28.52 150.193 29.18 150.953 29.64C151.733 30.08 152.553 30.3 153.413 30.3C154.293 30.3 155.113 30.08 155.873 29.64C156.633 29.2 157.243 28.56 157.703 27.72C158.183 26.86 158.423 25.86 158.423 24.72ZM169.785 18.93C170.365 18.13 171.155 17.48 172.155 16.98C173.175 16.46 174.305 16.2 175.545 16.2C177.005 16.2 178.325 16.55 179.505 17.25C180.685 17.95 181.615 18.95 182.295 20.25C182.975 21.53 183.315 23 183.315 24.66C183.315 26.32 182.975 27.81 182.295 29.13C181.615 30.43 180.675 31.45 179.475 32.19C178.295 32.91 176.985 33.27 175.545 33.27C174.265 33.27 173.125 33.02 172.125 32.52C171.145 32.02 170.365 31.38 169.785 30.6V33H166.365V10.8H169.785V18.93ZM179.835 24.66C179.835 23.52 179.595 22.54 179.115 21.72C178.655 20.88 178.035 20.25 177.255 19.83C176.495 19.39 175.675 19.17 174.795 19.17C173.935 19.17 173.115 19.39 172.335 19.83C171.575 20.27 170.955 20.91 170.475 21.75C170.015 22.59 169.785 23.58 169.785 24.72C169.785 25.86 170.015 26.86 170.475 27.72C170.955 28.56 171.575 29.2 172.335 29.64C173.115 30.08 173.935 30.3 174.795 30.3C175.675 30.3 176.495 30.08 177.255 29.64C178.035 29.18 178.655 28.52 179.115 27.66C179.595 26.8 179.835 25.8 179.835 24.66ZM185.557 24.66C185.557 23 185.897 21.53 186.577 20.25C187.277 18.97 188.217 17.98 189.397 17.28C190.597 16.56 191.917 16.2 193.357 16.2C194.657 16.2 195.787 16.46 196.747 16.98C197.727 17.48 198.507 18.11 199.087 18.87V16.47H202.537V33H199.087V30.54C198.507 31.32 197.717 31.97 196.717 32.49C195.717 33.01 194.577 33.27 193.297 33.27C191.877 33.27 190.577 32.91 189.397 32.19C188.217 31.45 187.277 30.43 186.577 29.13C185.897 27.81 185.557 26.32 185.557 24.66ZM199.087 24.72C199.087 23.58 198.847 22.59 198.367 21.75C197.907 20.91 197.297 20.27 196.537 19.83C195.777 19.39 194.957 19.17 194.077 19.17C193.197 19.17 192.377 19.39 191.617 19.83C190.857 20.25 190.237 20.88 189.757 21.72C189.297 22.54 189.067 23.52 189.067 24.66C189.067 25.8 189.297 26.8 189.757 27.66C190.237 28.52 190.857 29.18 191.617 29.64C192.397 30.08 193.217 30.3 194.077 30.3C194.957 30.3 195.777 30.08 196.537 29.64C197.297 29.2 197.907 28.56 198.367 27.72C198.847 26.86 199.087 25.86 199.087 24.72Z" fill="#EBEBEB"/>
<path d="M223.623 29.45H216.348L215.098 33H212.123L218.348 15.6H221.648L227.873 33H224.873L223.623 29.45ZM222.823 27.125L219.998 19.05L217.148 27.125H222.823ZM236.13 19C237.197 19 238.138 19.2167 238.955 19.65C239.788 20.0667 240.438 20.5917 240.905 21.225V19.225H243.78V33.225C243.78 34.4917 243.513 35.6167 242.98 36.6C242.447 37.6 241.672 38.3833 240.655 38.95C239.655 39.5167 238.455 39.8 237.055 39.8C235.188 39.8 233.638 39.3583 232.405 38.475C231.172 37.6083 230.472 36.425 230.305 34.925H233.13C233.347 35.6417 233.805 36.2167 234.505 36.65C235.222 37.1 236.072 37.325 237.055 37.325C238.205 37.325 239.13 36.975 239.83 36.275C240.547 35.575 240.905 34.5583 240.905 33.225V30.925C240.422 31.575 239.763 32.125 238.93 32.575C238.113 33.0083 237.18 33.225 236.13 33.225C234.93 33.225 233.83 32.925 232.83 32.325C231.847 31.7083 231.063 30.8583 230.48 29.775C229.913 28.675 229.63 27.4333 229.63 26.05C229.63 24.6667 229.913 23.4417 230.48 22.375C231.063 21.3083 231.847 20.4833 232.83 19.9C233.83 19.3 234.93 19 236.13 19ZM240.905 26.1C240.905 25.15 240.705 24.325 240.305 23.625C239.922 22.925 239.413 22.3917 238.78 22.025C238.147 21.6583 237.463 21.475 236.73 21.475C235.997 21.475 235.313 21.6583 234.68 22.025C234.047 22.375 233.53 22.9 233.13 23.6C232.747 24.2833 232.555 25.1 232.555 26.05C232.555 27 232.747 27.8333 233.13 28.55C233.53 29.2667 234.047 29.8167 234.68 30.2C235.33 30.5667 236.013 30.75 236.73 30.75C237.463 30.75 238.147 30.5667 238.78 30.2C239.413 29.8333 239.922 29.3 240.305 28.6C240.705 27.8833 240.905 27.05 240.905 26.1ZM250.373 21.225C250.79 20.525 251.34 19.9833 252.023 19.6C252.723 19.2 253.548 19 254.498 19V21.95H253.773C252.657 21.95 251.807 22.2333 251.223 22.8C250.657 23.3667 250.373 24.35 250.373 25.75V33H247.523V19.225H250.373V21.225ZM263.093 33.225C261.793 33.225 260.618 32.9333 259.568 32.35C258.518 31.75 257.693 30.9167 257.093 29.85C256.493 28.7667 256.193 27.5167 256.193 26.1C256.193 24.7 256.501 23.4583 257.118 22.375C257.735 21.2917 258.576 20.4583 259.643 19.875C260.71 19.2917 261.901 19 263.218 19C264.535 19 265.726 19.2917 266.793 19.875C267.86 20.4583 268.701 21.2917 269.318 22.375C269.935 23.4583 270.243 24.7 270.243 26.1C270.243 27.5 269.926 28.7417 269.293 29.825C268.66 30.9083 267.793 31.75 266.693 32.35C265.61 32.9333 264.41 33.225 263.093 33.225ZM263.093 30.75C263.826 30.75 264.51 30.575 265.143 30.225C265.793 29.875 266.318 29.35 266.718 28.65C267.118 27.95 267.318 27.1 267.318 26.1C267.318 25.1 267.126 24.2583 266.743 23.575C266.36 22.875 265.851 22.35 265.218 22C264.585 21.65 263.901 21.475 263.168 21.475C262.435 21.475 261.751 21.65 261.118 22C260.501 22.35 260.01 22.875 259.643 23.575C259.276 24.2583 259.093 25.1 259.093 26.1C259.093 27.5833 259.468 28.7333 260.218 29.55C260.985 30.35 261.943 30.75 263.093 30.75Z" fill="#059E50"/>
<path fill-rule="evenodd" clip-rule="evenodd" d="M54.4503 2.42205C54.4503 2.42205 55.4917 14.4418 44.7005 23.2635C39.8396 27.2373 34.608 28.6162 30.326 28.9317C30.3729 27.3991 30.6176 23.1582 31.8959 20.668C33.4769 17.5882 35.5052 14.5114 39.9847 12.5028C40.1167 12.4436 40.2483 12.3835 40.3796 12.3226C40.3254 12.365 40.2711 12.4077 40.2165 12.4506C35.4851 16.1792 34.9594 22.8961 34.9594 22.8961C34.9594 22.8961 39.691 21.3459 43.8968 16.9458C47.5059 13.17 48.3151 8.71463 48.4721 7.52634C48.5744 7.45257 48.6283 7.41263 48.6283 7.41263C48.6283 7.41263 48.5915 7.39389 48.4912 7.37123C48.5023 7.27419 48.5062 7.2227 48.5062 7.2227C48.5062 7.2227 48.4215 7.25837 48.2609 7.33241C47.7108 7.26347 46.4217 7.23558 43.6218 7.68051C38.5631 8.48438 35.9092 9.97559 31.5614 15.4454C26.6651 21.6052 27.0819 29.5057 27.0819 29.5057H27.0979C27.1501 30.5449 27.2641 31.5263 27.4685 32.3486C28.3757 35.9991 30.0069 40.5351 30.4374 41.711C30.4892 41.8526 30.3833 42 30.2326 42H27.0953C26.9153 42 26.7541 41.8884 26.6907 41.7199L24.3336 35.4523C20.9759 35.6129 14.7073 34.9441 8.69678 29.0923C0.582389 21.1921 0.0361614 12.7266 0 11.4858C1.30484 11.3968 5.59276 11.3152 9.32933 13.6368C13.7981 16.4134 14.981 17.5561 16.6897 20.3799C17.0147 20.917 17.2874 21.5703 17.5159 22.2761C16.8247 21.3568 15.8407 20.4364 14.4553 19.5834C8.0148 15.6182 6.57607 16.2615 6.57607 16.2615C6.57607 16.2615 7.35769 21.0379 11.9579 24.8722C16.3355 28.5209 18.4517 28.937 18.6463 28.9687C18.657 29.1424 18.6612 29.2385 18.6612 29.2385L21.9471 30.1641C21.9471 30.1641 22.3628 22.3632 17.4783 16.2812C13.1409 10.8805 6.70063 9.27392 6.70063 9.27392C6.70063 9.27392 6.47184 9.28197 6.114 9.30884C9.57339 8.84714 14.1758 9.27612 19.0543 12.6525C21.2687 14.1852 22.8855 16.1229 24.0601 18.2151C25.6864 14.2685 28.1963 9.96078 32.0018 6.96107C40.8931 -0.0475564 54.4503 2.42205 54.4503 2.42205Z" fill="#059E50"/>
<path d="M21 10.5C22.1213 11.1173 24 12.5 24 12.5C24 12.5 24.7014 11.6644 26 10C26.5 9.35919 29.5 7 29.5 7C29.5 7 27.4798 9.62141 26.5608 11C25.5608 12.5 24.0608 16 24.0608 16C24.0608 16 21.9532 12.4688 20.5 11.5C17.5 9.5 15 8.14081 15 8.14081C15 8.14081 19.4392 9.64081 21 10.5Z" fill="#F6B923"/>
</svg>
