<svg width="201" height="65" viewBox="0 0 201 65" fill="none" xmlns="http://www.w3.org/2000/svg">
<path d="M76.175 10.625V28H73.325V16.1L68.025 28H66.05L60.725 16.1V28H57.875V10.625H60.95L67.05 24.25L73.125 10.625H76.175ZM78.9709 21.05C78.9709 19.6667 79.2542 18.4417 79.8209 17.375C80.4042 16.3083 81.1876 15.4833 82.1709 14.9C83.1709 14.3 84.2709 14 85.4709 14C86.5542 14 87.4959 14.2167 88.2959 14.65C89.1126 15.0667 89.7626 15.5917 90.2459 16.225V14.225H93.1209V28H90.2459V25.95C89.7626 26.6 89.1042 27.1417 88.2709 27.575C87.4376 28.0083 86.4876 28.225 85.4209 28.225C84.2376 28.225 83.1542 27.925 82.1709 27.325C81.1876 26.7083 80.4042 25.8583 79.8209 24.775C79.2542 23.675 78.9709 22.4333 78.9709 21.05ZM90.2459 21.1C90.2459 20.15 90.0459 19.325 89.6459 18.625C89.2626 17.925 88.7542 17.3917 88.1209 17.025C87.4876 16.6583 86.8042 16.475 86.0709 16.475C85.3376 16.475 84.6542 16.6583 84.0209 17.025C83.3876 17.375 82.8709 17.9 82.4709 18.6C82.0876 19.2833 81.8959 20.1 81.8959 21.05C81.8959 22 82.0876 22.8333 82.4709 23.55C82.8709 24.2667 83.3876 24.8167 84.0209 25.2C84.6709 25.5667 85.3542 25.75 86.0709 25.75C86.8042 25.75 87.4876 25.5667 88.1209 25.2C88.7542 24.8333 89.2626 24.3 89.6459 23.6C90.0459 22.8833 90.2459 22.05 90.2459 21.1ZM99.7143 16.225C100.131 15.525 100.681 14.9833 101.364 14.6C102.064 14.2 102.889 14 103.839 14V16.95H103.114C101.998 16.95 101.148 17.2333 100.564 17.8C99.9976 18.3667 99.7143 19.35 99.7143 20.75V28H96.8643V14.225H99.7143V16.225ZM113.584 14C114.634 14 115.567 14.225 116.384 14.675C117.217 15.125 117.867 15.7917 118.334 16.675C118.817 17.5583 119.059 18.625 119.059 19.875V28H116.234V20.3C116.234 19.0667 115.926 18.125 115.309 17.475C114.692 16.8083 113.851 16.475 112.784 16.475C111.717 16.475 110.867 16.8083 110.234 17.475C109.617 18.125 109.309 19.0667 109.309 20.3V28H106.459V9.5H109.309V15.825C109.792 15.2417 110.401 14.7917 111.134 14.475C111.884 14.1583 112.701 14 113.584 14ZM121.744 21.05C121.744 19.6667 122.028 18.4417 122.594 17.375C123.178 16.3083 123.961 15.4833 124.944 14.9C125.944 14.3 127.044 14 128.244 14C129.328 14 130.269 14.2167 131.069 14.65C131.886 15.0667 132.536 15.5917 133.019 16.225V14.225H135.894V28H133.019V25.95C132.536 26.6 131.878 27.1417 131.044 27.575C130.211 28.0083 129.261 28.225 128.194 28.225C127.011 28.225 125.928 27.925 124.944 27.325C123.961 26.7083 123.178 25.8583 122.594 24.775C122.028 23.675 121.744 22.4333 121.744 21.05ZM133.019 21.1C133.019 20.15 132.819 19.325 132.419 18.625C132.036 17.925 131.528 17.3917 130.894 17.025C130.261 16.6583 129.578 16.475 128.844 16.475C128.111 16.475 127.428 16.6583 126.794 17.025C126.161 17.375 125.644 17.9 125.244 18.6C124.861 19.2833 124.669 20.1 124.669 21.05C124.669 22 124.861 22.8333 125.244 23.55C125.644 24.2667 126.161 24.8167 126.794 25.2C127.444 25.5667 128.128 25.75 128.844 25.75C129.578 25.75 130.261 25.5667 130.894 25.2C131.528 24.8333 132.036 24.3 132.419 23.6C132.819 22.8833 133.019 22.05 133.019 21.1ZM142.488 16.275C142.971 15.6083 143.629 15.0667 144.463 14.65C145.313 14.2167 146.254 14 147.288 14C148.504 14 149.604 14.2917 150.588 14.875C151.571 15.4583 152.346 16.2917 152.913 17.375C153.479 18.4417 153.763 19.6667 153.763 21.05C153.763 22.4333 153.479 23.675 152.913 24.775C152.346 25.8583 151.563 26.7083 150.563 27.325C149.579 27.925 148.488 28.225 147.288 28.225C146.221 28.225 145.271 28.0167 144.438 27.6C143.621 27.1833 142.971 26.65 142.488 26V28H139.638V9.5H142.488V16.275ZM150.863 21.05C150.863 20.1 150.663 19.2833 150.263 18.6C149.879 17.9 149.363 17.375 148.713 17.025C148.079 16.6583 147.396 16.475 146.663 16.475C145.946 16.475 145.263 16.6583 144.613 17.025C143.979 17.3917 143.463 17.925 143.063 18.625C142.679 19.325 142.488 20.15 142.488 21.1C142.488 22.05 142.679 22.8833 143.063 23.6C143.463 24.3 143.979 24.8333 144.613 25.2C145.263 25.5667 145.946 25.75 146.663 25.75C147.396 25.75 148.079 25.5667 148.713 25.2C149.363 24.8167 149.879 24.2667 150.263 23.55C150.663 22.8333 150.863 22 150.863 21.05ZM155.631 21.05C155.631 19.6667 155.914 18.4417 156.481 17.375C157.064 16.3083 157.848 15.4833 158.831 14.9C159.831 14.3 160.931 14 162.131 14C163.214 14 164.156 14.2167 164.956 14.65C165.773 15.0667 166.423 15.5917 166.906 16.225V14.225H169.781V28H166.906V25.95C166.423 26.6 165.764 27.1417 164.931 27.575C164.098 28.0083 163.148 28.225 162.081 28.225C160.898 28.225 159.814 27.925 158.831 27.325C157.848 26.7083 157.064 25.8583 156.481 24.775C155.914 23.675 155.631 22.4333 155.631 21.05ZM166.906 21.1C166.906 20.15 166.706 19.325 166.306 18.625C165.923 17.925 165.414 17.3917 164.781 17.025C164.148 16.6583 163.464 16.475 162.731 16.475C161.998 16.475 161.314 16.6583 160.681 17.025C160.048 17.375 159.531 17.9 159.131 18.6C158.748 19.2833 158.556 20.1 158.556 21.05C158.556 22 158.748 22.8333 159.131 23.55C159.531 24.2667 160.048 24.8167 160.681 25.2C161.331 25.5667 162.014 25.75 162.731 25.75C163.464 25.75 164.148 25.5667 164.781 25.2C165.414 24.8333 165.923 24.3 166.306 23.6C166.706 22.8833 166.906 22.05 166.906 21.1Z" fill="white"/>
<path d="M66.48 44.1V45.96H62.78V58H60.5V45.96H56.78V44.1H66.48ZM69.9491 45.52C69.5357 45.52 69.1891 45.38 68.9091 45.1C68.6291 44.82 68.4891 44.4733 68.4891 44.06C68.4891 43.6467 68.6291 43.3 68.9091 43.02C69.1891 42.74 69.5357 42.6 69.9491 42.6C70.3491 42.6 70.6891 42.74 70.9691 43.02C71.2491 43.3 71.3891 43.6467 71.3891 44.06C71.3891 44.4733 71.2491 44.82 70.9691 45.1C70.6891 45.38 70.3491 45.52 69.9491 45.52ZM71.0691 46.98V58H68.7891V46.98H71.0691ZM78.0625 58.18C77.1958 58.18 76.4158 58.0267 75.7225 57.72C75.0425 57.4 74.5025 56.9733 74.1025 56.44C73.7025 55.8933 73.4892 55.2867 73.4625 54.62H75.8225C75.8625 55.0867 76.0825 55.48 76.4825 55.8C76.8958 56.1067 77.4092 56.26 78.0225 56.26C78.6625 56.26 79.1558 56.14 79.5025 55.9C79.8625 55.6467 80.0425 55.3267 80.0425 54.94C80.0425 54.5267 79.8425 54.22 79.4425 54.02C79.0558 53.82 78.4358 53.6 77.5825 53.36C76.7558 53.1333 76.0825 52.9133 75.5625 52.7C75.0425 52.4867 74.5892 52.16 74.2025 51.72C73.8292 51.28 73.6425 50.7 73.6425 49.98C73.6425 49.3933 73.8158 48.86 74.1625 48.38C74.5092 47.8867 75.0025 47.5 75.6425 47.22C76.2958 46.94 77.0425 46.8 77.8825 46.8C79.1358 46.8 80.1425 47.12 80.9025 47.76C81.6758 48.3867 82.0892 49.2467 82.1425 50.34H79.8625C79.8225 49.8467 79.6225 49.4533 79.2625 49.16C78.9025 48.8667 78.4158 48.72 77.8025 48.72C77.2025 48.72 76.7425 48.8333 76.4225 49.06C76.1025 49.2867 75.9425 49.5867 75.9425 49.96C75.9425 50.2533 76.0492 50.5 76.2625 50.7C76.4758 50.9 76.7358 51.06 77.0425 51.18C77.3492 51.2867 77.8025 51.4267 78.4025 51.6C79.2025 51.8133 79.8558 52.0333 80.3625 52.26C80.8825 52.4733 81.3292 52.7933 81.7025 53.22C82.0758 53.6467 82.2692 54.2133 82.2825 54.92C82.2825 55.5467 82.1092 56.1067 81.7625 56.6C81.4158 57.0933 80.9225 57.48 80.2825 57.76C79.6558 58.04 78.9158 58.18 78.0625 58.18ZM88.7461 58.18C87.8794 58.18 87.0994 58.0267 86.4061 57.72C85.7261 57.4 85.1861 56.9733 84.7861 56.44C84.3861 55.8933 84.1728 55.2867 84.1461 54.62H86.5061C86.5461 55.0867 86.7661 55.48 87.1661 55.8C87.5794 56.1067 88.0928 56.26 88.7061 56.26C89.3461 56.26 89.8394 56.14 90.1861 55.9C90.5461 55.6467 90.7261 55.3267 90.7261 54.94C90.7261 54.5267 90.5261 54.22 90.1261 54.02C89.7394 53.82 89.1194 53.6 88.2661 53.36C87.4394 53.1333 86.7661 52.9133 86.2461 52.7C85.7261 52.4867 85.2728 52.16 84.8861 51.72C84.5128 51.28 84.3261 50.7 84.3261 49.98C84.3261 49.3933 84.4994 48.86 84.8461 48.38C85.1928 47.8867 85.6861 47.5 86.3261 47.22C86.9794 46.94 87.7261 46.8 88.5661 46.8C89.8194 46.8 90.8261 47.12 91.5861 47.76C92.3594 48.3867 92.7728 49.2467 92.8261 50.34H90.5461C90.5061 49.8467 90.3061 49.4533 89.9461 49.16C89.5861 48.8667 89.0994 48.72 88.4861 48.72C87.8861 48.72 87.4261 48.8333 87.1061 49.06C86.7861 49.2867 86.6261 49.5867 86.6261 49.96C86.6261 50.2533 86.7328 50.5 86.9461 50.7C87.1594 50.9 87.4194 51.06 87.7261 51.18C88.0328 51.2867 88.4861 51.4267 89.0861 51.6C89.8861 51.8133 90.5394 52.0333 91.0461 52.26C91.5661 52.4733 92.0128 52.7933 92.3861 53.22C92.7594 53.6467 92.9528 54.2133 92.9661 54.92C92.9661 55.5467 92.7928 56.1067 92.4461 56.6C92.0994 57.0933 91.6061 57.48 90.9661 57.76C90.3394 58.04 89.5994 58.18 88.7461 58.18ZM105.41 46.98V58H103.13V56.7C102.77 57.1533 102.296 57.5133 101.71 57.78C101.136 58.0333 100.523 58.16 99.8697 58.16C99.003 58.16 98.223 57.98 97.5297 57.62C96.8497 57.26 96.3097 56.7267 95.9097 56.02C95.523 55.3133 95.3297 54.46 95.3297 53.46V46.98H97.5897V53.12C97.5897 54.1067 97.8364 54.8667 98.3297 55.4C98.823 55.92 99.4964 56.18 100.35 56.18C101.203 56.18 101.876 55.92 102.37 55.4C102.876 54.8667 103.13 54.1067 103.13 53.12V46.98H105.41ZM118.518 52.22C118.518 52.6333 118.491 53.0067 118.438 53.34H110.018C110.085 54.22 110.411 54.9267 110.998 55.46C111.585 55.9933 112.305 56.26 113.158 56.26C114.385 56.26 115.251 55.7467 115.758 54.72H118.218C117.885 55.7333 117.278 56.5667 116.398 57.22C115.531 57.86 114.451 58.18 113.158 58.18C112.105 58.18 111.158 57.9467 110.318 57.48C109.491 57 108.838 56.3333 108.358 55.48C107.891 54.6133 107.658 53.6133 107.658 52.48C107.658 51.3467 107.885 50.3533 108.338 49.5C108.805 48.6333 109.451 47.9667 110.278 47.5C111.118 47.0333 112.078 46.8 113.158 46.8C114.198 46.8 115.125 47.0267 115.938 47.48C116.751 47.9333 117.385 48.5733 117.838 49.4C118.291 50.2133 118.518 51.1533 118.518 52.22ZM116.138 51.5C116.125 50.66 115.825 49.9867 115.238 49.48C114.651 48.9733 113.925 48.72 113.058 48.72C112.271 48.72 111.598 48.9733 111.038 49.48C110.478 49.9733 110.145 50.6467 110.038 51.5H116.138Z" fill="#009FFD"/>
<path d="M6.34961 8.01172H32.5397L24.5256 17.0672V52.3108L19.4447 58.011L14.4685 52.5074V17.1292L6.34961 8.01172Z" fill="#2491ED"/>
<path d="M0 8L9.42761 17.4276V27.7391V49.842L0 40.4074V27.7391V8Z" fill="#2EEC36"/>
<path d="M38.8887 8L29.4611 17.4276V27.7391V49.835L38.8887 40.4004V27.7391V8Z" fill="#2EEC36"/>
</svg>
